<svg xmlns="http://www.w3.org/2000/svg" width="1200" height="700" viewBox="0 0 1200 700">
  <rect width="1200" height="700" fill="#f8fafc" />
  <rect x="80" y="90" width="1040" height="520" rx="24" fill="#ffffff" stroke="#e2e8f0" />
  <rect x="120" y="130" width="960" height="60" rx="18" fill="#f1f5f9" />
  <g fill="#ffffff" stroke="#e2e8f0">
    <rect x="140" y="145" width="44" height="30" rx="12" />
    <rect x="190" y="145" width="44" height="30" rx="12" />
    <rect x="240" y="145" width="44" height="30" rx="12" />
    <rect x="290" y="145" width="44" height="30" rx="12" />
    <rect x="340" y="145" width="44" height="30" rx="12" />
  </g>
  <rect x="120" y="220" width="960" height="280" rx="18" fill="#ffffff" stroke="#cbd5f5" />
  <rect x="150" y="260" width="460" height="22" rx="11" fill="#0f172a" opacity="0.08" />
  <rect x="150" y="290" width="420" height="22" rx="11" fill="#0f172a" opacity="0.08" />
  <rect x="150" y="340" width="520" height="22" rx="11" fill="#0f172a" opacity="0.08" />
  <rect x="120" y="520" width="320" height="60" rx="14" fill="#0f172a" />
  <rect x="460" y="520" width="320" height="60" rx="14" fill="#0f172a" opacity="0.9" />
  <rect x="800" y="520" width="280" height="60" rx="14" fill="#ffffff" stroke="#e2e8f0" />
  <text x="120" y="115" font-family="Inter, Arial, sans-serif" font-size="18" fill="#0f172a" opacity="0.6">Fixed Toolbar Demo</text>
  <text x="820" y="555" font-family="Inter, Arial, sans-serif" font-size="14" fill="#0f172a" opacity="0.6">Empty: false</text>
</svg>
